<svg width="16" height="16" fill="currentColor" xmlns="http://www.w3.org/2000/svg"><path fill-rule="evenodd" clip-rule="evenodd" d="M1.61532 1.61526c.18048-.18055.42519-.28193.6803-.28193h8.95888c.3682 0 .6667-.29847.6667-.666663C11.9212.298477 11.6227 0 11.2545 0H2.29562C1.68671 0 1.10279.241993.672314.672654.241845 1.1033.000061 1.68733.000061 2.29624V13.7033c0 .6089.241784 1.1929.672253 1.6236.430476.4306 1.014396.6726 1.623306.6726H13.6978c.6089 0 1.1929-.242 1.6233-.6726.4305-.4307.6723-1.0147.6723-1.6236V7.99976c0-.36819-.2985-.66666-.6667-.66666-.3682 0-.6666.29847-.6666.66666v5.70354c0 .2555-.1015.5004-.282.681-.1804.1805-.4252.2819-.6803.2819H2.29562c-.25511 0-.49982-.1014-.6803-.2819-.18048-.1806-.28193-.4255-.28193-.681V2.29624c0-.25547.10145-.50042.28193-.68098Zm14.20138.32514c.2532-.2673.2418-.68925-.0255-.942467-.2673-.253213-.6893-.241797-.9425.025497L7.61408 8.66042l-1.8316-1.93347c-.25321-.26729-.67516-.27871-.94246-.0255-.2673.25322-.27871.67517-.0255.94247L7.1301 10.0883c.1259.1329.30091.2082.48398.2082s.35808-.0753.48398-.2082l7.71864-8.1479Z"/></svg>