<svg width="10" height="10" fill="currentColor" xmlns="http://www.w3.org/2000/svg"><path fill-rule="evenodd" clip-rule="evenodd" d="M9.80303 1.13807c.26037-.260348.26037-.682458 0-.942808-.26035-.26035-.68246-.26035-.94281 0L4.99914 4.05633 1.13807.195262c-.260348-.26035-.682458-.26035-.942808 0-.26035.26035-.26035.68246 0 .942808L4.05633 4.99914.195262 8.86022c-.26035.26035-.26035.68246 0 .94281.26035.26037.68246.26037.942808 0l3.86107-3.86108 3.86108 3.86108c.26035.26037.68246.26037.94281 0 .26037-.26035.26037-.68246 0-.94281L5.94195 4.99914l3.86108-3.86107Z"/></svg>